<svg width="200" height="200" viewBox="0 0 200 200" xmlns="http://www.w3.org/2000/svg">
  <!-- Background -->
  <rect width="200" height="200" rx="24" fill="#1C1433"/>

  <!-- Hexágono -->
  <polygon points="100,52 132,70 132,106 100,124 68,106 68,70"
    fill="none" stroke="#5DCAA5" stroke-width="2.5"/>

  <!-- Nodo central -->
  <circle cx="100" cy="88" r="6" fill="#5DCAA5"/>

  <!-- Conexiones -->
  <line x1="100" y1="88" x2="100" y2="52" stroke="#5DCAA5" stroke-width="1.5" opacity="0.55"/>
  <line x1="100" y1="88" x2="132" y2="70" stroke="#5DCAA5" stroke-width="1.5" opacity="0.55"/>
  <line x1="100" y1="88" x2="132" y2="106" stroke="#5DCAA5" stroke-width="1.5" opacity="0.55"/>
  <line x1="100" y1="88" x2="100" y2="124" stroke="#5DCAA5" stroke-width="1.5" opacity="0.55"/>
  <line x1="100" y1="88" x2="68" y2="106" stroke="#5DCAA5" stroke-width="1.5" opacity="0.55"/>
  <line x1="100" y1="88" x2="68" y2="70" stroke="#5DCAA5" stroke-width="1.5" opacity="0.55"/>

  <!-- Nodos en vértices -->
  <circle cx="100" cy="52" r="4" fill="#AFA9EC"/>
  <circle cx="132" cy="70" r="4" fill="#AFA9EC"/>
  <circle cx="132" cy="106" r="4" fill="#AFA9EC"/>
  <circle cx="100" cy="124" r="4" fill="#AFA9EC"/>
  <circle cx="68" cy="106" r="4" fill="#AFA9EC"/>
  <circle cx="68" cy="70" r="4" fill="#AFA9EC"/>

  <!-- Wordmark -->
  <text x="100" y="158" text-anchor="middle"
    font-family="system-ui, -apple-system, sans-serif"
    font-size="22" font-weight="500" fill="#FFFFFF" letter-spacing="6">NEXUS</text>
  <text x="100" y="176" text-anchor="middle"
    font-family="ui-monospace, monospace"
    font-size="9" fill="#5DCAA5" letter-spacing="2">PROTOCOL v4.0.1</text>
</svg>
